<svg xmlns="http://www.w3.org/2000/svg" viewBox="0 0 900 1200" role="img" aria-labelledby="title desc">
  <title id="title">Imagem ilustrativa do Gabriel</title>
  <desc id="desc">Retrato ilustrativo temporário para substituir pela foto real do Gabriel.</desc>
  <defs>
    <linearGradient id="bg" x1="1" x2="0" y1="0" y2="1">
      <stop offset="0" stop-color="#f97316"/>
      <stop offset="0.58" stop-color="#0f9f8f"/>
      <stop offset="1" stop-color="#12202b"/>
    </linearGradient>
    <linearGradient id="jacket" x1="0" x2="1" y1="0" y2="1">
      <stop offset="0" stop-color="#172554"/>
      <stop offset="1" stop-color="#0f766e"/>
    </linearGradient>
  </defs>
  <rect width="900" height="1200" fill="url(#bg)"/>
  <path d="M0 620 C200 705 286 594 450 690 C618 789 706 714 900 792 L900 1200 L0 1200 Z" fill="#2563eb" opacity=".25"/>
  <path d="M88 1076 C120 850 260 690 450 690 C640 690 780 850 812 1076 Z" fill="url(#jacket)"/>
  <path d="M336 1085 L564 1085 L535 780 L365 780 Z" fill="#f8fafc"/>
  <path d="M356 790 C382 852 424 884 450 884 C476 884 518 852 544 790 L544 690 L356 690 Z" fill="#bf7f5d"/>
  <ellipse cx="450" cy="506" rx="190" ry="236" fill="#cc8f69"/>
  <path d="M270 455 C262 310 344 232 454 232 C573 232 646 314 633 456 C593 362 514 330 439 330 C365 330 308 366 270 455 Z" fill="#2f1f17"/>
  <path d="M270 470 C255 404 265 332 316 282 C364 235 450 211 532 239 C598 262 640 319 648 389 C610 342 556 315 493 313 C405 311 323 352 270 470 Z" fill="#1f140f"/>
  <circle cx="382" cy="520" r="14" fill="#1f2937"/>
  <circle cx="520" cy="520" r="14" fill="#1f2937"/>
  <path d="M390 624 C428 648 475 648 512 624" fill="none" stroke="#7b3f2d" stroke-width="18" stroke-linecap="round"/>
  <path d="M338 468 C370 449 405 449 431 466" fill="none" stroke="#1f140f" stroke-width="16" stroke-linecap="round"/>
  <path d="M470 466 C497 449 532 449 562 468" fill="none" stroke="#1f140f" stroke-width="16" stroke-linecap="round"/>
  <text x="450" y="1130" text-anchor="middle" font-family="Arial, sans-serif" font-size="72" font-weight="800" fill="#ffffff">Gabriel</text>
</svg>

